<?xml version="1.0" standalone="no"?>
<!DOCTYPE svg PUBLIC "-//W3C//DTD SVG 1.1//EN"
  "http://www.w3.org/Graphics/SVG/1.1/DTD/svg11.dtd">
<svg baseProfile="full" height="150%" version="1.1" width="600%" xmlns="http://www.w3.org/2000/svg" xmlns:ev="http://www.w3.org/2001/xml-events" xmlns:xlink="http://www.w3.org/1999/xlink"><defs><marker fill="black" id="id1" markerHeight="10" markerUnits="strokeWidth" markerWidth="8" orient="auto" overflow="visible" refX="0" refY="5" stroke="none" viewBox="0 0 10 5"><path d="M 0 0 L 10 5 L 0 10 z" /></marker><marker fill="black" id="id2" markerHeight="10" markerUnits="strokeWidth" markerWidth="8" orient="auto" overflow="visible" refX="0" refY="5" stroke="none" viewBox="0 0 10 5"><path d="M 0 0 L 10 5 L 0 10 z" /></marker><marker fill="black" id="id3" markerHeight="10" markerUnits="strokeWidth" markerWidth="8" orient="auto" overflow="visible" refX="0" refY="5" stroke="none" viewBox="0 0 10 5"><path d="M 0 0 L 10 5 L 0 10 z" /></marker><marker fill="black" id="id4" markerHeight="10" markerUnits="strokeWidth" markerWidth="8" orient="auto" overflow="visible" refX="0" refY="5" stroke="none" viewBox="0 0 10 5"><path d="M 0 0 L 10 5 L 0 10 z" /></marker><marker fill="black" id="id5" markerHeight="10" markerUnits="strokeWidth" markerWidth="8" orient="auto" overflow="visible" refX="0" refY="5" stroke="none" viewBox="0 0 10 5"><path d="M 0 0 L 10 5 L 0 10 z" /></marker><marker fill="black" id="id6" markerHeight="10" markerUnits="strokeWidth" markerWidth="8" orient="auto" overflow="visible" refX="0" refY="5" stroke="none" viewBox="0 0 10 5"><path d="M 0 0 L 10 5 L 0 10 z" /></marker><marker fill="black" id="id7" markerHeight="10" markerUnits="strokeWidth" markerWidth="8" orient="auto" overflow="visible" refX="0" refY="5" stroke="none" viewBox="0 0 10 5"><path d="M 0 0 L 10 5 L 0 10 z" /></marker><marker fill="black" id="id8" markerHeight="10" markerUnits="strokeWidth" markerWidth="8" orient="auto" overflow="visible" refX="0" refY="5" stroke="none" viewBox="0 0 10 5"><path d="M 0 0 L 10 5 L 0 10 z" /></marker><marker fill="black" id="id9" markerHeight="10" markerUnits="strokeWidth" markerWidth="8" orient="auto" overflow="visible" refX="0" refY="5" stroke="none" viewBox="0 0 10 5"><path d="M 0 0 L 10 5 L 0 10 z" /></marker><marker fill="black" id="id10" markerHeight="10" markerUnits="strokeWidth" markerWidth="8" orient="auto" overflow="visible" refX="0" refY="5" stroke="none" viewBox="0 0 10 5"><path d="M 0 0 L 10 5 L 0 10 z" /></marker><marker fill="black" id="id11" markerHeight="10" markerUnits="strokeWidth" markerWidth="8" orient="auto" overflow="visible" refX="0" refY="5" stroke="none" viewBox="0 0 10 5"><path d="M 0 0 L 10 5 L 0 10 z" /></marker><marker fill="black" id="id12" markerHeight="10" markerUnits="strokeWidth" markerWidth="8" orient="auto" overflow="visible" refX="0" refY="5" stroke="none" viewBox="0 0 10 5"><path d="M 0 0 L 10 5 L 0 10 z" /></marker><marker fill="black" id="id13" markerHeight="10" markerUnits="strokeWidth" markerWidth="8" orient="auto" overflow="visible" refX="0" refY="5" stroke="none" viewBox="0 0 10 5"><path d="M 0 0 L 10 5 L 0 10 z" /></marker><marker fill="black" id="id14" markerHeight="10" markerUnits="strokeWidth" markerWidth="8" orient="auto" overflow="visible" refX="0" refY="5" stroke="none" viewBox="0 0 10 5"><path d="M 0 0 L 10 5 L 0 10 z" /></marker><marker fill="black" id="id15" markerHeight="10" markerUnits="strokeWidth" markerWidth="8" orient="auto" overflow="visible" refX="0" refY="5" stroke="none" viewBox="0 0 10 5"><path d="M 0 0 L 10 5 L 0 10 z" /></marker><marker fill="black" id="id16" markerHeight="10" markerUnits="strokeWidth" markerWidth="8" orient="auto" overflow="visible" refX="0" refY="5" stroke="none" viewBox="0 0 10 5"><path d="M 0 0 L 10 5 L 0 10 z" /></marker><marker fill="black" id="id17" markerHeight="10" markerUnits="strokeWidth" markerWidth="8" orient="auto" overflow="visible" refX="0" refY="5" stroke="none" viewBox="0 0 10 5"><path d="M 0 0 L 10 5 L 0 10 z" /></marker><marker fill="black" id="id18" markerHeight="10" markerUnits="strokeWidth" markerWidth="8" orient="auto" overflow="visible" refX="0" refY="5" stroke="none" viewBox="0 0 10 5"><path d="M 0 0 L 10 5 L 0 10 z" /></marker><marker fill="black" id="id19" markerHeight="10" markerUnits="strokeWidth" markerWidth="8" orient="auto" overflow="visible" refX="0" refY="5" stroke="none" viewBox="0 0 10 5"><path d="M 0 0 L 10 5 L 0 10 z" /></marker></defs><rect fill="#EBD9B2" height="30" stroke="#000000" width="107.25" x="5" y="10" /><rect fill="#ffffff" height="20" stroke="rgb(0,0,0)" width="107.25" x="5" y="40" /><rect fill="#EBD9B2" height="30" stroke="#000000" width="107.25" x="5" y="130" /><rect fill="#ffffff" height="20" stroke="rgb(0,0,0)" width="107.25" x="5" y="160" /><rect fill="#EBD9B2" height="30" stroke="#000000" width="107.25" x="5" y="250" /><rect fill="#ffffff" height="20" stroke="rgb(0,0,0)" width="107.25" x="5" y="280" /><rect fill="#EBD9B2" height="30" stroke="#000000" width="107.25" x="5" y="370" /><rect fill="#ffffff" height="20" stroke="rgb(0,0,0)" width="107.25" x="5" y="400" /><rect fill="#EBD9B2" height="30" stroke="#000000" width="90.75" x="225" y="130" /><rect fill="#ffffff" height="65" stroke="rgb(0,0,0)" width="90.75" x="225" y="160" /><rect fill="#EBD9B2" height="30" stroke="#000000" width="90.75" x="225" y="250" /><rect fill="#ffffff" height="65" stroke="rgb(0,0,0)" width="90.75" x="225" y="280" /><rect fill="#EBD9B2" height="30" stroke="#000000" width="90.75" x="225" y="10" /><rect fill="#ffffff" height="50" stroke="rgb(0,0,0)" width="90.75" x="225" y="40" /><rect fill="#EBD9B2" height="30" stroke="#000000" width="90.75" x="225" y="370" /><rect fill="#ffffff" height="65" stroke="rgb(0,0,0)" width="90.75" x="225" y="400" /><rect fill="#EBD9B2" height="30" stroke="#000000" width="93.5" x="445" y="130" /><rect fill="#ffffff" height="65" stroke="rgb(0,0,0)" width="93.5" x="445" y="160" /><rect fill="#EBD9B2" height="30" stroke="#000000" width="93.5" x="445" y="250" /><rect fill="#ffffff" height="65" stroke="rgb(0,0,0)" width="93.5" x="445" y="280" /><rect fill="#EBD9B2" height="30" stroke="#000000" width="93.5" x="445" y="10" /><rect fill="#ffffff" height="65" stroke="rgb(0,0,0)" width="93.5" x="445" y="40" /><rect fill="#EBD9B2" height="30" stroke="#000000" width="93.5" x="445" y="370" /><rect fill="#ffffff" height="65" stroke="rgb(0,0,0)" width="93.5" x="445" y="400" /><rect fill="#EBD9B2" height="30" stroke="#000000" width="107.25" x="665" y="130" /><rect fill="#ffffff" height="65" stroke="rgb(0,0,0)" width="107.25" x="665" y="160" /><rect fill="#EBD9B2" height="30" stroke="#000000" width="107.25" x="665" y="250" /><rect fill="#ffffff" height="65" stroke="rgb(0,0,0)" width="107.25" x="665" y="280" /><rect fill="#EBD9B2" height="30" stroke="#000000" width="107.25" x="665" y="10" /><rect fill="#ffffff" height="65" stroke="rgb(0,0,0)" width="107.25" x="665" y="40" /><rect fill="#EBD9B2" height="30" stroke="#000000" width="107.25" x="665" y="370" /><rect fill="#ffffff" height="65" stroke="rgb(0,0,0)" width="107.25" x="665" y="400" /><rect fill="#EBD9B2" height="30" stroke="#000000" width="107.25" x="885" y="130" /><rect fill="#ffffff" height="50" stroke="rgb(0,0,0)" width="107.25" x="885" y="160" /><rect fill="#EBD9B2" height="30" stroke="#000000" width="107.25" x="885" y="250" /><rect fill="#ffffff" height="50" stroke="rgb(0,0,0)" width="107.25" x="885" y="280" /><rect fill="#EBD9B2" height="30" stroke="#000000" width="107.25" x="885" y="10" /><rect fill="#ffffff" height="50" stroke="rgb(0,0,0)" width="107.25" x="885" y="40" /><rect fill="#EBD9B2" height="30" stroke="#000000" width="107.25" x="885" y="370" /><rect fill="#ffffff" height="50" stroke="rgb(0,0,0)" width="107.25" x="885" y="400" /><rect fill="#EBD9B2" height="30" stroke="#000000" width="181.5" x="1105" y="10" /><rect fill="#ffffff" height="95" stroke="rgb(0,0,0)" width="181.5" x="1105" y="40" /><line marker-end="url(#id1)" stroke="#000000" x1="117.25" x2="220" y1="50" y2="175" /><line marker-end="url(#id2)" stroke="#000000" x1="117.25" x2="220" y1="170" y2="295" /><line marker-end="url(#id3)" stroke="#000000" x1="117.25" x2="220" y1="290" y2="55" /><line marker-end="url(#id4)" stroke="#000000" x1="117.25" x2="220" y1="410" y2="415" /><line marker-end="url(#id5)" stroke="#000000" x1="320.75" x2="440" y1="200" y2="175" /><line marker-end="url(#id6)" stroke="#000000" x1="320.75" x2="440" y1="320" y2="295" /><line marker-end="url(#id7)" stroke="#000000" x1="320.75" x2="440" y1="80" y2="55" /><line marker-end="url(#id8)" stroke="#000000" x1="320.75" x2="440" y1="440" y2="415" /><line marker-end="url(#id9)" stroke="#000000" x1="543.5" x2="660" y1="200" y2="175" /><line marker-end="url(#id10)" stroke="#000000" x1="543.5" x2="660" y1="320" y2="295" /><line marker-end="url(#id11)" stroke="#000000" x1="543.5" x2="660" y1="80" y2="55" /><line marker-end="url(#id12)" stroke="#000000" x1="543.5" x2="660" y1="440" y2="415" /><line marker-end="url(#id13)" stroke="#000000" x1="777.25" x2="880" y1="200" y2="175" /><line marker-end="url(#id14)" stroke="#000000" x1="777.25" x2="880" y1="320" y2="295" /><line marker-end="url(#id15)" stroke="#000000" x1="777.25" x2="880" y1="80" y2="55" /><line marker-end="url(#id16)" stroke="#000000" x1="777.25" x2="880" y1="440" y2="415" /><line marker-end="url(#id17)" stroke="#000000" x1="777.25" x2="1100" y1="80" y2="55" /><line marker-end="url(#id18)" stroke="#000000" x1="777.25" x2="1100" y1="440" y2="70" /><line marker-end="url(#id19)" stroke="#000000" x1="997.25" x2="1100" y1="440" y2="85" /><g style="font-family: Helvetica, Arial, FreeSans, Sans, sans, sans-serif;"><text style="font-size:14px" x="10" y="30">Input dataset</text><text style="font-size:10px" x="10" y="55">output</text><text style="font-size:14px" x="10" y="150">Input dataset</text><text style="font-size:10px" x="10" y="175">output</text><text style="font-size:14px" x="10" y="270">Input dataset</text><text style="font-size:10px" x="10" y="295">output</text><text style="font-size:14px" x="10" y="390">Input dataset</text><text style="font-size:10px" x="10" y="415">output</text><text style="font-size:14px" x="230" y="150">Trimmomatic</text><text style="font-size:10px" x="230" y="175">Input FASTQ file</text><text style="font-size:10px" x="230" y="205">fastq_out</text><text style="font-size:10px" x="230" y="220">log_file</text><text style="font-size:14px" x="230" y="270">Trimmomatic</text><text style="font-size:10px" x="230" y="295">Input FASTQ file</text><text style="font-size:10px" x="230" y="325">fastq_out</text><text style="font-size:10px" x="230" y="340">log_file</text><text style="font-size:14px" x="230" y="30">Trimmomatic</text><text style="font-size:10px" x="230" y="55">Input FASTQ file</text><text style="font-size:10px" x="230" y="85">fastq_out</text><text style="font-size:14px" x="230" y="390">Trimmomatic</text><text style="font-size:10px" x="230" y="415">Input FASTQ file</text><text style="font-size:10px" x="230" y="445">fastq_out</text><text style="font-size:10px" x="230" y="460">log_file</text><text style="font-size:14px" x="450" y="150">HISAT2</text><text style="font-size:10px" x="450" y="175">FASTA/Q file</text><text style="font-size:10px" x="450" y="205">output_alignments</text><text style="font-size:10px" x="450" y="220">summary_file</text><text style="font-size:14px" x="450" y="270">HISAT2</text><text style="font-size:10px" x="450" y="295">FASTA/Q file</text><text style="font-size:10px" x="450" y="325">output_alignments</text><text style="font-size:10px" x="450" y="340">summary_file</text><text style="font-size:14px" x="450" y="30">HISAT2</text><text style="font-size:10px" x="450" y="55">FASTA/Q file</text><text style="font-size:10px" x="450" y="85">output_alignments</text><text style="font-size:10px" x="450" y="100">summary_file</text><text style="font-size:14px" x="450" y="390">HISAT2</text><text style="font-size:10px" x="450" y="415">FASTA/Q file</text><text style="font-size:10px" x="450" y="445">output_alignments</text><text style="font-size:10px" x="450" y="460">summary_file</text><text style="font-size:14px" x="670" y="150">featureCounts</text><text style="font-size:10px" x="670" y="175">Alignment file</text><text style="font-size:10px" x="670" y="205">output_short</text><text style="font-size:10px" x="670" y="220">output_summary</text><text style="font-size:14px" x="670" y="270">featureCounts</text><text style="font-size:10px" x="670" y="295">Alignment file</text><text style="font-size:10px" x="670" y="325">output_short</text><text style="font-size:10px" x="670" y="340">output_summary</text><text style="font-size:14px" x="670" y="30">featureCounts</text><text style="font-size:10px" x="670" y="55">Alignment file</text><text style="font-size:10px" x="670" y="85">output_short</text><text style="font-size:10px" x="670" y="100">output_summary</text><text style="font-size:14px" x="670" y="390">featureCounts</text><text style="font-size:10px" x="670" y="415">Alignment file</text><text style="font-size:10px" x="670" y="445">output_short</text><text style="font-size:10px" x="670" y="460">output_summary</text><text style="font-size:14px" x="890" y="150">annotateMyIDs</text><text style="font-size:10px" x="890" y="175">File with IDs</text><text style="font-size:10px" x="890" y="205">out_tab</text><text style="font-size:14px" x="890" y="270">annotateMyIDs</text><text style="font-size:10px" x="890" y="295">File with IDs</text><text style="font-size:10px" x="890" y="325">out_tab</text><text style="font-size:14px" x="890" y="30">annotateMyIDs</text><text style="font-size:10px" x="890" y="55">File with IDs</text><text style="font-size:10px" x="890" y="85">out_tab</text><text style="font-size:14px" x="890" y="390">annotateMyIDs</text><text style="font-size:10px" x="890" y="415">File with IDs</text><text style="font-size:10px" x="890" y="445">out_tab</text><text style="font-size:14px" x="1110" y="30">limma</text><text style="font-size:10px" x="1110" y="55">Factor 1 &gt; Group 1 &gt; Counts files</text><text style="font-size:10px" x="1110" y="70">Factor 1 &gt; Group 2 &gt; Counts files</text><text style="font-size:10px" x="1110" y="85">Gene Annotations</text><text style="font-size:10px" x="1110" y="115">outTables</text><text style="font-size:10px" x="1110" y="130">outReport</text><line stroke="rgb(0,0,0)" x1="225" x2="315.75" y1="185" y2="185" /><circle cx="112.25" cy="50" fill="#ffffff" r="5" stroke="#000000" /><line stroke="rgb(0,0,0)" x1="225" x2="315.75" y1="305" y2="305" /><circle cx="112.25" cy="170" fill="#ffffff" r="5" stroke="#000000" /><line stroke="rgb(0,0,0)" x1="225" x2="315.75" y1="65" y2="65" /><circle cx="112.25" cy="290" fill="#ffffff" r="5" stroke="#000000" /><line stroke="rgb(0,0,0)" x1="225" x2="315.75" y1="425" y2="425" /><circle cx="112.25" cy="410" fill="#ffffff" r="5" stroke="#000000" /><line stroke="rgb(0,0,0)" x1="445" x2="538.5" y1="185" y2="185" /><circle cx="315.75" cy="200" fill="#ffffff" r="5" stroke="#000000" /><line stroke="rgb(0,0,0)" x1="445" x2="538.5" y1="305" y2="305" /><circle cx="315.75" cy="320" fill="#ffffff" r="5" stroke="#000000" /><line stroke="rgb(0,0,0)" x1="445" x2="538.5" y1="65" y2="65" /><circle cx="315.75" cy="80" fill="#ffffff" r="5" stroke="#000000" /><line stroke="rgb(0,0,0)" x1="445" x2="538.5" y1="425" y2="425" /><circle cx="315.75" cy="440" fill="#ffffff" r="5" stroke="#000000" /><line stroke="rgb(0,0,0)" x1="665" x2="772.25" y1="185" y2="185" /><circle cx="538.5" cy="200" fill="#ffffff" r="5" stroke="#000000" /><line stroke="rgb(0,0,0)" x1="665" x2="772.25" y1="305" y2="305" /><circle cx="538.5" cy="320" fill="#ffffff" r="5" stroke="#000000" /><line stroke="rgb(0,0,0)" x1="665" x2="772.25" y1="65" y2="65" /><circle cx="538.5" cy="80" fill="#ffffff" r="5" stroke="#000000" /><line stroke="rgb(0,0,0)" x1="665" x2="772.25" y1="425" y2="425" /><circle cx="538.5" cy="440" fill="#ffffff" r="5" stroke="#000000" /><line stroke="rgb(0,0,0)" x1="885" x2="992.25" y1="185" y2="185" /><circle cx="772.25" cy="200" fill="#ffffff" r="5" stroke="#000000" /><line stroke="rgb(0,0,0)" x1="885" x2="992.25" y1="305" y2="305" /><circle cx="772.25" cy="320" fill="#ffffff" r="5" stroke="#000000" /><line stroke="rgb(0,0,0)" x1="885" x2="992.25" y1="65" y2="65" /><circle cx="772.25" cy="80" fill="#ffffff" r="5" stroke="#000000" /><line stroke="rgb(0,0,0)" x1="885" x2="992.25" y1="425" y2="425" /><circle cx="772.25" cy="440" fill="#ffffff" r="5" stroke="#000000" /><line stroke="rgb(0,0,0)" x1="1105" x2="1286.5" y1="95" y2="95" /><circle cx="772.25" cy="80" fill="#ffffff" r="5" stroke="#000000" /><circle cx="772.25" cy="440" fill="#ffffff" r="5" stroke="#000000" /><circle cx="992.25" cy="440" fill="#ffffff" r="5" stroke="#000000" /></g></svg>
